<svg width="115" height="208" viewBox="0 0 115 208" fill="none" xmlns="http://www.w3.org/2000/svg">
<mask id="path-1-outside-1_160_5536" maskUnits="userSpaceOnUse" x="-51.8086" y="0.210938" width="167" height="208" fill="black">
<rect fill="white" x="-51.8086" y="0.210938" width="167" height="208"/>
<path d="M-49.4472 206.211V2.51349H28.4773C42.5128 2.51349 54.9079 4.97426 65.6624 9.89581C76.5991 14.8174 85.1663 22.1086 91.3638 31.7694C97.5613 41.4302 100.66 53.3695 100.66 67.5873C100.66 81.4406 97.4701 93.2887 91.0904 103.132C84.7106 112.793 76.1434 120.084 65.3889 125.005L111.87 206.211H64.2953L13.9861 116.256L41.328 132.388H-7.0672V206.211H-49.4472ZM-7.0672 95.4761H28.7507C34.766 95.4761 39.9609 94.2913 44.3356 91.9216C48.7103 89.552 52.0825 86.271 54.4522 82.0785C57.0041 77.8861 58.28 73.0557 58.28 67.5873C58.28 61.9366 57.0041 57.0151 54.4522 52.8227C52.0825 48.6302 48.7103 45.3492 44.3356 42.9796C39.9609 40.6099 34.766 39.4251 28.7507 39.4251H-7.0672V95.4761Z"/>
</mask>
<path d="M-49.4472 206.211V2.51349H28.4773C42.5128 2.51349 54.9079 4.97426 65.6624 9.89581C76.5991 14.8174 85.1663 22.1086 91.3638 31.7694C97.5613 41.4302 100.66 53.3695 100.66 67.5873C100.66 81.4406 97.4701 93.2887 91.0904 103.132C84.7106 112.793 76.1434 120.084 65.3889 125.005L111.87 206.211H64.2953L13.9861 116.256L41.328 132.388H-7.0672V206.211H-49.4472ZM-7.0672 95.4761H28.7507C34.766 95.4761 39.9609 94.2913 44.3356 91.9216C48.7103 89.552 52.0825 86.271 54.4522 82.0785C57.0041 77.8861 58.28 73.0557 58.28 67.5873C58.28 61.9366 57.0041 57.0151 54.4522 52.8227C52.0825 48.6302 48.7103 45.3492 44.3356 42.9796C39.9609 40.6099 34.766 39.4251 28.7507 39.4251H-7.0672V95.4761Z" fill="white"/>
<path d="M-49.4472 206.211H-51.0877V207.851H-49.4472V206.211ZM-49.4472 2.51349V0.872971H-51.0877V2.51349H-49.4472ZM65.6624 9.89581L64.9797 11.3876L64.9891 11.3918L65.6624 9.89581ZM91.3638 31.7694L89.983 32.6552L91.3638 31.7694ZM91.0904 103.132L92.4594 104.036L92.467 104.024L91.0904 103.132ZM65.3889 125.005L64.7063 123.514L63.0727 124.261L63.9652 125.82L65.3889 125.005ZM111.87 206.211V207.851H114.699L113.294 205.396L111.87 206.211ZM64.2953 206.211L62.8634 207.012L63.3331 207.851H64.2953V206.211ZM13.9861 116.256L14.8197 114.843L9.59087 111.758L12.5543 117.057L13.9861 116.256ZM41.328 132.388V134.028H47.337L42.1617 130.975L41.328 132.388ZM-7.0672 132.388V130.747H-8.70772V132.388H-7.0672ZM-7.0672 206.211V207.851H-5.42669V206.211H-7.0672ZM-7.0672 95.4761H-8.70772V97.1166H-7.0672V95.4761ZM44.3356 91.9216L45.117 93.3641L44.3356 91.9216ZM54.4522 82.0785L53.0508 81.2256L53.037 81.2482L53.024 81.2713L54.4522 82.0785ZM54.4522 52.8227L53.024 53.6299L53.037 53.653L53.0508 53.6756L54.4522 52.8227ZM44.3356 42.9796L43.5543 44.4221H43.5543L44.3356 42.9796ZM-7.0672 39.4251V37.7846H-8.70772V39.4251H-7.0672ZM-49.4472 206.211H-47.8067V2.51349H-49.4472H-51.0877V206.211H-49.4472ZM-49.4472 2.51349V4.15401H28.4773V2.51349V0.872971H-49.4472V2.51349ZM28.4773 2.51349V4.15401C42.3207 4.15401 54.4757 6.58063 64.9797 11.3876L65.6624 9.89581L66.345 8.40408C55.34 3.3679 42.705 0.872971 28.4773 0.872971V2.51349ZM65.6624 9.89581L64.9891 11.3918C75.6496 16.189 83.9651 23.2744 89.983 32.6552L91.3638 31.7694L92.7446 30.8836C86.3674 20.9427 77.5486 13.4457 66.3356 8.39979L65.6624 9.89581ZM91.3638 31.7694L89.983 32.6552C95.9745 41.9949 99.0195 53.6085 99.0195 67.5873H100.66H102.301C102.301 53.1305 99.1481 40.8655 92.7446 30.8836L91.3638 31.7694ZM100.66 67.5873H99.0195C99.0195 81.1822 95.8921 92.7072 89.7137 102.24L91.0904 103.132L92.467 104.024C99.0482 93.8703 102.301 81.6989 102.301 67.5873H100.66ZM91.0904 103.132L89.7214 102.228C83.5147 111.627 75.1879 118.717 64.7063 123.514L65.3889 125.005L66.0716 126.497C77.099 121.451 85.9065 113.959 92.4593 104.036L91.0904 103.132ZM65.3889 125.005L63.9652 125.82L110.446 207.026L111.87 206.211L113.294 205.396L66.8127 124.19L65.3889 125.005ZM111.87 206.211V204.57H64.2953V206.211V207.851H111.87V206.211ZM64.2953 206.211L65.7271 205.41L15.4179 115.455L13.9861 116.256L12.5543 117.057L62.8634 207.012L64.2953 206.211ZM13.9861 116.256L13.1525 117.669L40.4944 133.801L41.328 132.388L42.1617 130.975L14.8197 114.843L13.9861 116.256ZM41.328 132.388V130.747H-7.0672V132.388V134.028H41.328V132.388ZM-7.0672 132.388H-8.70772V206.211H-7.0672H-5.42669V132.388H-7.0672ZM-7.0672 206.211V204.57H-49.4472V206.211V207.851H-7.0672V206.211ZM-7.0672 95.4761V97.1166H28.7507V95.4761V93.8356H-7.0672V95.4761ZM28.7507 95.4761V97.1166C34.9822 97.1166 40.457 95.8883 45.117 93.3641L44.3356 91.9216L43.5543 90.4791C39.4648 92.6943 34.5498 93.8356 28.7507 93.8356V95.4761ZM44.3356 91.9216L45.117 93.3641C49.7533 90.8528 53.3538 87.3557 55.8803 82.8858L54.4522 82.0785L53.024 81.2713C50.8112 85.1862 47.6674 88.2512 43.5543 90.4791L44.3356 91.9216ZM54.4522 82.0785L55.8535 82.9315C58.5792 78.4535 59.9205 73.3212 59.9205 67.5873H58.28H56.6395C56.6395 72.7901 55.4289 77.3187 53.0508 81.2256L54.4522 82.0785ZM58.28 67.5873H59.9205C59.9205 61.6821 58.5843 56.456 55.8535 51.9697L54.4522 52.8227L53.0508 53.6756C55.4238 57.5741 56.6395 62.1911 56.6395 67.5873H58.28ZM54.4522 52.8227L55.8803 52.0154C53.3538 47.5455 49.7533 44.0484 45.117 41.5371L44.3356 42.9796L43.5543 44.4221C47.6674 46.65 50.8112 49.715 53.024 53.6299L54.4522 52.8227ZM44.3356 42.9796L45.117 41.5371C40.457 39.0129 34.9822 37.7846 28.7507 37.7846V39.4251V41.0656C34.5498 41.0656 39.4648 42.2069 43.5543 44.4221L44.3356 42.9796ZM28.7507 39.4251V37.7846H-7.0672V39.4251V41.0656H28.7507V39.4251ZM-7.0672 39.4251H-8.70772V95.4761H-7.0672H-5.42669V39.4251H-7.0672Z" fill="#ECF2F6" fill-opacity="0.8" mask="url(#path-1-outside-1_160_5536)"/>
</svg>
