<svg width="135" height="183" viewBox="0 0 135 183" fill="none" xmlns="http://www.w3.org/2000/svg">
<mask id="path-1-outside-1_160_5537" maskUnits="userSpaceOnUse" x="0.291016" y="-24.8066" width="187" height="208" fill="black">
<rect fill="white" x="0.291016" y="-24.8066" width="187" height="208"/>
<path d="M3.61175 181.193L70.3261 79.2079L3.61175 -22.5041H52.2804L105.871 58.9749H82.0831L135.4 -22.5041H184.069L117.628 79.2079L184.069 181.193H135.4L82.0831 99.441L105.871 99.7144L52.2804 181.193H3.61175Z"/>
</mask>
<path d="M3.61175 181.193L70.3261 79.2079L3.61175 -22.5041H52.2804L105.871 58.9749H82.0831L135.4 -22.5041H184.069L117.628 79.2079L184.069 181.193H135.4L82.0831 99.441L105.871 99.7144L52.2804 181.193H3.61175Z" fill="white"/>
<path d="M3.61175 181.193L2.23889 180.295L0.578257 182.834H3.61175V181.193ZM70.3261 79.2079L71.699 80.106L72.2872 79.2067L71.6979 78.3082L70.3261 79.2079ZM3.61175 -22.5041V-24.1446H0.573792L2.23999 -21.6043L3.61175 -22.5041ZM52.2804 -22.5041L53.651 -23.4056L53.165 -24.1446H52.2804V-22.5041ZM105.871 58.9749V60.6154H108.913L107.241 58.0734L105.871 58.9749ZM82.0831 58.9749L80.7104 58.0766L79.0491 60.6154H82.0831V58.9749ZM135.4 -22.5041V-24.1446H134.513L134.027 -23.4024L135.4 -22.5041ZM184.069 -22.5041L185.442 -21.6069L187.1 -24.1446H184.069V-22.5041ZM117.628 79.2079L116.254 78.3107L115.669 79.2067L116.253 80.1034L117.628 79.2079ZM184.069 181.193V182.834H187.095L185.443 180.298L184.069 181.193ZM135.4 181.193L134.026 182.09L134.511 182.834H135.4V181.193ZM82.0831 99.441L82.102 97.8006L79.0317 97.7653L80.709 100.337L82.0831 99.441ZM105.871 99.7144L107.241 100.616L108.89 98.1085L105.889 98.074L105.871 99.7144ZM52.2804 181.193V182.834H53.165L53.651 182.095L52.2804 181.193ZM3.61175 181.193L4.98462 182.091L71.699 80.106L70.3261 79.2079L68.9532 78.3099L2.23889 180.295L3.61175 181.193ZM70.3261 79.2079L71.6979 78.3082L4.98352 -23.4038L3.61175 -22.5041L2.23999 -21.6043L68.9543 80.1077L70.3261 79.2079ZM3.61175 -22.5041V-20.8636H52.2804V-22.5041V-24.1446H3.61175V-22.5041ZM52.2804 -22.5041L50.9098 -21.6026L104.5 59.8764L105.871 58.9749L107.241 58.0734L53.651 -23.4056L52.2804 -22.5041ZM105.871 58.9749V57.3344H82.0831V58.9749V60.6154H105.871V58.9749ZM82.0831 58.9749L83.4559 59.8732L136.773 -21.6058L135.4 -22.5041L134.027 -23.4024L80.7104 58.0766L82.0831 58.9749ZM135.4 -22.5041V-20.8636H184.069V-22.5041V-24.1446H135.4V-22.5041ZM184.069 -22.5041L182.695 -23.4013L116.254 78.3107L117.628 79.2079L119.001 80.1051L185.442 -21.6069L184.069 -22.5041ZM117.628 79.2079L116.253 80.1034L182.694 182.089L184.069 181.193L185.443 180.298L119.002 78.3124L117.628 79.2079ZM184.069 181.193V179.553H135.4V181.193V182.834H184.069V181.193ZM135.4 181.193L136.774 180.297L83.4572 98.5448L82.0831 99.441L80.709 100.337L134.026 182.09L135.4 181.193ZM82.0831 99.441L82.0643 101.081L105.852 101.355L105.871 99.7144L105.889 98.074L82.102 97.8006L82.0831 99.441ZM105.871 99.7144L104.5 98.8129L50.9098 180.292L52.2804 181.193L53.651 182.095L107.241 100.616L105.871 99.7144ZM52.2804 181.193V179.553H3.61175V181.193V182.834H52.2804V181.193Z" fill="#ECF2F6" fill-opacity="0.8" mask="url(#path-1-outside-1_160_5537)"/>
</svg>
